<svg xmlns="http://www.w3.org/2000/svg">
<defs>
<font id="EmbeddedFont_1" vert-origin-x="512" vert-origin-y="768" vert-adv-y="1024">&#xa;   &#xa;   &#xa;   <glyph unicode="W" d="M 1817,1548 L 1388,0 1274,0 935,1224 C 926,1263 917,1295 909,1321 901,1346 907,1363 927,1373 948,1368 957,1355 952,1335 947,1314 941,1292 934,1268 L 591,0 477,0 54,1548 198,1548 510,402 C 523,352 535,309 546,273 556,237 552,217 534,212 516,217 512,237 522,274 531,310 543,353 557,404 L 870,1548 986,1548 1308,398 C 1324,345 1336,300 1345,265 1353,230 1349,210 1330,205 1311,209 1306,229 1314,265 1322,300 1334,345 1349,398 L 1673,1548 1817,1548 Z" id="glyph6"/>&#xa;   <glyph unicode="U" d="M 1351,559 C 1351,430 1326,322 1276,236 1226,150 1158,86 1070,43 983,1 883,-20 770,-20 589,-20 448,30 346,130 245,229 195,374 195,563 L 195,1548 333,1548 333,568 C 333,416 371,302 446,228 522,154 630,117 772,117 907,117 1014,152 1094,223 1173,293 1212,400 1212,543 L 1212,1548 1351,1548 1351,559 Z" id="glyph8"/>&#xa;   <glyph unicode="S" d="M 1087,412 C 1087,315 1062,234 1012,169 962,104 897,56 817,26 736,-5 649,-20 555,-20 457,-20 378,-13 315,0 252,13 186,30 115,50 L 115,202 C 205,170 282,148 344,135 407,123 478,117 559,117 632,117 697,127 756,149 815,171 861,203 895,246 929,289 946,345 946,414 946,472 932,519 905,554 877,589 835,620 778,646 721,672 651,698 568,723 487,750 414,779 348,810 283,842 230,885 190,940 151,995 131,1068 131,1157 131,1249 155,1325 202,1387 249,1449 310,1494 387,1524 463,1554 547,1569 639,1569 705,1569 771,1562 835,1550 898,1538 975,1512 1065,1471 L 1005,1347 C 921,1384 851,1408 795,1417 740,1427 687,1432 635,1432 567,1432 506,1422 450,1402 395,1383 351,1354 319,1315 288,1276 272,1225 272,1161 272,1097 286,1047 315,1010 344,973 385,943 439,919 493,896 555,873 623,852 712,824 791,794 860,761 929,728 984,684 1025,629 1066,574 1087,502 1087,412 Z" id="glyph10"/>&#xa;   <glyph unicode="R" d="M 579,1547 C 697,1547 797,1535 881,1511 965,1486 1029,1442 1074,1378 1120,1315 1142,1228 1142,1118 1142,999 1110,902 1046,828 981,753 911,705 835,685 L 1246,-1 1079,-1 688,655 350,655 350,-1 211,-1 211,1547 579,1547 Z M 569,1411 L 350,1411 350,792 641,792 C 749,792 836,820 902,876 968,933 1001,1013 1001,1115 1001,1194 987,1254 958,1295 928,1336 882,1366 818,1384 755,1402 672,1411 569,1411 Z" id="glyph12"/>&#xa;   <glyph unicode="P" d="M 596,1548 C 767,1548 901,1514 998,1445 1094,1376 1142,1263 1142,1106 1142,992 1118,899 1069,827 1020,754 953,703 866,672 779,641 680,625 567,625 L 350,625 350,1 211,1 211,1548 596,1548 Z M 587,1412 L 350,1412 350,762 563,762 C 654,762 733,772 798,792 864,813 914,847 949,896 984,944 1001,1014 1001,1104 1001,1214 969,1293 904,1340 839,1388 734,1412 587,1412 Z" id="glyph14"/>&#xa;   <glyph unicode="O" d="M 1498,776 C 1498,623 1474,487 1424,367 1374,247 1298,152 1196,83 1094,15 966,-20 813,-20 662,-20 536,15 434,85 332,154 255,249 205,369 154,489 129,625 129,778 129,932 156,1068 209,1187 263,1307 342,1400 446,1468 551,1536 677,1571 825,1571 1040,1571 1207,1500 1323,1359 1440,1218 1498,1024 1498,776 Z M 270,778 C 270,647 289,532 329,433 369,334 429,256 509,200 589,144 691,117 815,117 940,117 1042,144 1121,198 1201,253 1260,329 1299,429 1338,528 1358,644 1358,776 1358,989 1312,1151 1220,1264 1127,1377 996,1434 825,1434 700,1434 597,1406 515,1351 433,1296 372,1219 331,1120 290,1022 270,908 270,778 Z" id="glyph16"/>&#xa;   <glyph unicode="N" d="M 1302,0 L 1198,0 305,1377 309,1380 C 336,1325 350,1273 350,1225 350,1177 350,1126 350,1071 L 350,0 211,0 211,1548 317,1548 1208,175 1204,172 C 1177,220 1163,272 1163,325 1163,378 1163,428 1163,475 L 1163,1548 1302,1548 1302,0 Z" id="glyph18"/>&#xa;   <glyph unicode="I" d="M 542,0 L 125,0 125,124 264,131 264,1416 125,1424 125,1548 542,1548 542,1424 403,1416 403,131 542,124 542,0 Z" id="glyph20"/>&#xa;   <glyph unicode="G" d="M 752,803 L 1394,803 1394,90 C 1309,49 1226,21 1144,4 1063,-12 980,-20 897,-20 648,-20 458,49 327,187 195,326 129,520 129,770 129,922 160,1058 223,1179 286,1299 376,1395 494,1466 611,1537 750,1573 911,1573 992,1573 1069,1565 1142,1550 1216,1535 1299,1505 1392,1459 L 1330,1331 C 1238,1376 1161,1405 1098,1417 1035,1430 972,1436 909,1436 776,1436 662,1407 567,1350 471,1293 398,1214 346,1114 295,1015 270,900 270,772 270,614 295,488 347,392 398,297 471,228 565,183 659,139 771,117 901,117 977,117 1047,123 1111,135 1174,148 1222,161 1255,174 L 1255,666 752,666 752,803 Z" id="glyph22"/>&#xa;   <glyph unicode="B" d="M 645,1548 C 833,1548 971,1515 1058,1449 1146,1383 1189,1284 1189,1153 1189,1060 1161,978 1106,907 1050,836 969,804 863,811 L 863,815 C 996,821 1090,789 1145,718 1199,648 1226,561 1226,459 1226,350 1201,261 1150,192 1100,123 1032,74 947,44 862,15 768,0 663,0 L 211,0 211,1548 645,1548 Z M 663,880 C 920,880 1049,970 1049,1151 1049,1243 1018,1310 956,1350 894,1391 789,1411 639,1411 L 350,1411 350,880 663,880 Z M 350,744 L 350,137 680,137 C 810,137 910,162 980,213 1050,264 1085,345 1085,457 1085,531 1070,589 1038,629 1006,670 959,699 895,717 831,735 751,744 657,744 L 350,744 Z" id="glyph24"/>&#xa;   <glyph unicode="5" d="M 604,958 C 761,958 886,918 979,836 1073,755 1120,638 1120,488 1120,384 1096,294 1049,217 1001,141 935,82 851,41 766,0 670,-20 561,-20 479,-20 406,-11 341,6 276,23 213,49 152,84 L 152,245 C 238,194 310,160 368,143 426,125 490,117 561,117 689,117 791,149 866,214 941,280 979,371 979,488 979,593 948,675 886,734 825,792 730,822 604,822 543,822 489,818 440,810 392,802 336,789 273,770 L 199,829 266,1548 1031,1548 1031,1412 391,1412 343,924 C 343,927 368,934 419,943 470,953 531,958 604,958 Z" id="glyph26"/>&#xa;   <glyph unicode="2" d="M 1091,0 L 121,0 121,107 591,605 C 657,673 712,735 754,791 797,847 829,903 850,958 872,1014 883,1077 883,1147 883,1237 858,1307 807,1357 757,1407 685,1432 592,1432 538,1432 482,1422 426,1401 369,1381 303,1342 230,1283 L 148,1391 C 236,1464 316,1512 388,1534 461,1557 528,1568 592,1568 677,1568 752,1550 817,1515 883,1479 933,1429 969,1366 1005,1302 1023,1229 1023,1146 1023,1059 1010,981 983,912 956,843 918,778 869,715 820,653 762,586 694,516 L 336,137 336,137 1091,137 1091,0 Z" id="glyph28"/>&#xa;   <glyph unicode="1" d="M 741,0 L 602,0 602,1196 C 602,1255 602,1304 602,1345 602,1386 612,1409 631,1414 643,1400 641,1386 625,1373 609,1359 588,1343 562,1323 L 276,1112 191,1223 637,1548 741,1548 741,0 Z" id="glyph30"/>&#xa;   <glyph unicode="" id="glyph32"/>&#xa;  </font><font id="EmbeddedFont_2" vert-origin-x="512" vert-origin-y="768" vert-adv-y="1024">&#xa;   &#xa;   &#xa;   <glyph unicode="z" d="M 83,0 L 83,137 688,943 117,943 117,1082 901,1082 901,945 295,139 922,139 922,0 83,0 Z" id="glyph41"/>&#xa;   <glyph unicode="u" d="M 314,1082 L 314,396 C 314,325 321,269 335,230 349,191 371,162 402,145 433,128 478,119 537,119 624,119 692,149 742,208 792,267 817,350 817,455 L 817,1082 997,1082 997,231 C 997,105 999,28 1003,0 L 833,0 C 832,3 832,12 831,27 830,42 830,59 829,78 828,97 826,132 825,185 L 822,185 C 781,110 733,58 679,27 624,-4 557,-20 476,-20 357,-20 271,10 216,69 161,128 133,225 133,361 L 133,1082 314,1082 Z" id="glyph43"/>&#xa;   <glyph unicode="t" d="M 554,8 C 495,-8 434,-16 372,-16 228,-16 156,66 156,229 L 156,951 31,951 31,1082 163,1082 216,1324 336,1324 336,1082 536,1082 536,951 336,951 336,268 C 336,216 345,180 362,159 379,138 408,127 450,127 474,127 509,132 554,141 L 554,8 Z" id="glyph45"/>&#xa;   <glyph unicode="r" d="M 142,0 L 142,830 C 142,906 140,990 136,1082 L 306,1082 C 311,959 314,886 314,861 L 318,861 C 347,954 380,1017 417,1051 454,1085 507,1102 575,1102 599,1102 623,1099 648,1092 L 648,927 C 624,934 592,937 552,937 477,937 420,905 381,841 342,776 322,684 322,564 L 322,0 142,0 Z" id="glyph47"/>&#xa;   <glyph unicode="o" d="M 1053,542 C 1053,353 1011,212 928,119 845,26 724,-20 565,-20 407,-20 288,28 207,125 126,221 86,360 86,542 86,915 248,1102 571,1102 736,1102 858,1057 936,966 1014,875 1053,733 1053,542 Z M 864,542 C 864,691 842,800 798,868 753,935 679,969 574,969 469,969 393,935 346,866 299,797 275,689 275,542 275,399 298,292 345,221 391,149 464,113 563,113 671,113 748,148 795,217 841,286 864,395 864,542 Z" id="glyph49"/>&#xa;   <glyph unicode="n" d="M 825,0 L 825,686 C 825,757 818,813 804,852 790,891 768,920 737,937 706,954 661,963 602,963 515,963 447,933 397,874 347,815 322,732 322,627 L 322,0 142,0 142,851 C 142,977 140,1054 136,1082 L 306,1082 C 307,1079 307,1070 308,1055 309,1040 310,1024 311,1005 312,986 313,950 314,897 L 317,897 C 358,972 406,1025 461,1056 515,1087 582,1102 663,1102 782,1102 869,1073 924,1014 979,955 1006,857 1006,721 L 1006,0 825,0 Z" id="glyph51"/>&#xa;   <glyph unicode="m" d="M 768,0 L 768,686 C 768,791 754,863 725,903 696,943 645,963 570,963 493,963 433,934 388,875 343,816 321,734 321,627 L 321,0 142,0 142,851 C 142,977 140,1054 136,1082 L 306,1082 C 307,1079 307,1070 308,1055 309,1040 310,1024 311,1005 312,986 313,950 314,897 L 317,897 C 356,974 400,1027 450,1057 500,1087 561,1102 633,1102 715,1102 780,1086 828,1053 875,1020 908,968 927,897 L 930,897 C 967,970 1013,1022 1066,1054 1119,1086 1183,1102 1258,1102 1367,1102 1447,1072 1497,1013 1546,954 1571,856 1571,721 L 1571,0 1393,0 1393,686 C 1393,791 1379,863 1350,903 1321,943 1270,963 1195,963 1116,963 1055,934 1012,876 968,817 946,734 946,627 L 946,0 768,0 Z" id="glyph53"/>&#xa;   <glyph unicode="l" d="M 138,0 L 138,1484 318,1484 318,0 138,0 Z" id="glyph55"/>&#xa;   <glyph unicode="i" d="M 137,0 L 137,1082 317,1082 317,0 137,0 Z M 137,1312 L 137,1484 317,1484 317,1312 137,1312 Z" id="glyph57"/>&#xa;   <glyph unicode="g" d="M 548,-425 C 430,-425 336,-402 266,-356 196,-309 151,-243 131,-158 L 312,-132 C 324,-182 351,-220 392,-248 433,-274 486,-288 553,-288 732,-288 822,-183 822,27 L 822,201 820,201 C 786,132 739,80 680,45 621,10 551,-8 472,-8 339,-8 242,36 180,124 117,212 86,350 86,539 86,730 120,872 187,963 254,1054 355,1099 492,1099 569,1099 635,1082 692,1047 748,1012 791,962 822,897 L 824,897 C 824,917 825,952 828,1001 831,1050 833,1077 836,1082 L 1007,1082 C 1003,1046 1001,971 1001,858 L 1001,31 C 1001,-273 850,-425 548,-425 Z M 822,541 C 822,629 810,705 786,769 762,832 728,881 685,915 641,948 591,965 536,965 444,965 377,932 335,865 293,798 272,690 272,541 272,393 292,287 331,222 370,157 438,125 533,125 590,125 640,142 684,175 728,208 762,256 786,319 810,381 822,455 822,541 Z" id="glyph59"/>&#xa;   <glyph unicode="e" d="M 276,503 C 276,379 302,283 353,216 404,149 479,115 578,115 656,115 719,131 766,162 813,193 844,233 861,281 L 1019,236 C 954,65 807,-20 578,-20 418,-20 296,28 213,123 129,218 87,360 87,548 87,727 129,864 213,959 296,1054 416,1102 571,1102 889,1102 1048,910 1048,527 L 1048,503 276,503 Z M 862,641 C 852,755 823,838 775,891 727,943 658,969 568,969 481,969 412,940 361,882 310,823 282,743 278,641 L 862,641 Z" id="glyph61"/>&#xa;   <glyph unicode="d" d="M 821,174 C 788,105 744,55 689,25 634,-5 565,-20 484,-20 347,-20 247,26 183,118 118,210 86,349 86,536 86,913 219,1102 484,1102 566,1102 634,1087 689,1057 744,1027 788,979 821,914 L 823,914 821,1035 821,1484 1001,1484 1001,223 C 1001,110 1003,36 1007,0 L 835,0 C 833,11 831,35 829,74 826,113 825,146 825,174 L 821,174 Z M 275,542 C 275,391 295,282 335,217 375,152 440,119 530,119 632,119 706,154 752,225 798,296 821,405 821,554 821,697 798,802 752,869 706,936 633,969 532,969 441,969 376,936 336,869 295,802 275,693 275,542 Z" id="glyph63"/>&#xa;   <glyph unicode="c" d="M 275,546 C 275,402 298,295 343,226 388,157 457,122 548,122 612,122 666,139 709,174 752,209 778,262 788,334 L 970,322 C 956,218 912,135 837,73 762,11 668,-20 553,-20 402,-20 286,28 207,124 127,219 87,359 87,542 87,724 127,863 207,959 287,1054 402,1102 551,1102 662,1102 754,1073 827,1016 900,959 945,880 964,779 L 779,765 C 770,825 746,873 708,908 670,943 616,961 546,961 451,961 382,929 339,866 296,803 275,696 275,546 Z" id="glyph65"/>&#xa;   <glyph unicode="b" d="M 1053,546 C 1053,169 920,-20 655,-20 573,-20 505,-5 451,25 396,54 352,102 318,168 L 316,168 C 316,147 315,116 312,74 309,31 307,7 306,0 L 132,0 C 136,36 138,110 138,223 L 138,1484 318,1484 318,1061 C 318,1018 317,967 314,908 L 318,908 C 351,977 396,1027 451,1057 506,1087 574,1102 655,1102 792,1102 892,1056 957,964 1021,872 1053,733 1053,546 Z M 864,540 C 864,691 844,800 804,865 764,930 699,963 609,963 508,963 434,928 388,859 341,790 318,680 318,529 318,387 341,282 386,215 431,147 505,113 607,113 698,113 763,147 804,214 844,281 864,389 864,540 Z" id="glyph67"/>&#xa;   <glyph unicode="a" d="M 414,-20 C 305,-20 224,9 169,66 114,123 87,202 87,302 87,414 124,500 198,560 271,620 390,652 554,656 L 797,660 797,719 C 797,807 778,870 741,908 704,946 645,965 565,965 484,965 426,951 389,924 352,897 330,853 323,793 L 135,810 C 166,1005 310,1102 569,1102 705,1102 807,1071 876,1009 945,946 979,856 979,738 L 979,272 C 979,219 986,179 1000,152 1014,125 1041,111 1080,111 1097,111 1117,113 1139,118 L 1139,6 C 1094,-5 1047,-10 1000,-10 933,-10 885,8 855,43 824,78 807,132 803,207 L 797,207 C 751,124 698,66 637,32 576,-3 501,-20 414,-20 Z M 455,115 C 521,115 580,130 631,160 682,190 723,231 753,284 782,336 797,390 797,445 L 797,534 600,530 C 515,529 451,520 408,504 364,488 330,463 307,430 284,397 272,353 272,299 272,240 288,195 320,163 351,131 396,115 455,115 Z" id="glyph69"/>&#xa;   <glyph unicode="W" d="M 1511,0 L 1283,0 1039,895 C 1023,951 1000,1051 969,1196 952,1119 937,1054 925,1002 913,950 822,616 652,0 L 424,0 9,1409 208,1409 461,514 C 491,402 519,287 544,168 560,241 579,321 600,408 621,495 713,828 877,1409 L 1060,1409 1305,532 C 1342,389 1372,267 1393,168 L 1402,203 C 1420,280 1435,342 1446,391 1457,439 1551,778 1727,1409 L 1926,1409 1511,0 Z" id="glyph71"/>&#xa;   <glyph unicode="S" d="M 1272,389 C 1272,259 1221,158 1120,87 1018,16 875,-20 690,-20 347,-20 148,99 93,338 L 278,375 C 299,290 345,228 414,189 483,149 578,129 697,129 820,129 916,150 983,193 1050,235 1083,297 1083,379 1083,425 1073,462 1052,491 1031,520 1001,543 963,562 925,581 880,596 827,609 774,622 716,635 652,650 541,675 456,699 399,724 341,749 295,776 262,807 229,837 203,872 186,913 168,954 159,1000 159,1053 159,1174 205,1267 298,1332 390,1397 522,1430 694,1430 854,1430 976,1406 1061,1357 1146,1308 1205,1224 1239,1106 L 1051,1073 C 1030,1148 991,1202 933,1236 875,1269 795,1286 692,1286 579,1286 493,1267 434,1230 375,1193 345,1137 345,1063 345,1020 357,984 380,956 403,927 436,903 479,884 522,864 609,840 738,811 781,801 825,791 868,781 911,770 952,758 991,744 1030,729 1067,712 1102,693 1136,674 1166,650 1191,622 1216,594 1236,561 1251,523 1265,485 1272,440 1272,389 Z" id="glyph73"/>&#xa;   <glyph unicode="M" d="M 1366,0 L 1366,940 C 1366,1044 1369,1144 1375,1240 1342,1121 1313,1027 1287,960 L 923,0 789,0 420,960 364,1130 331,1240 334,1129 338,940 338,0 168,0 168,1409 419,1409 794,432 C 807,393 820,351 833,306 845,261 853,228 857,208 862,235 874,275 891,330 908,384 919,418 925,432 L 1293,1409 1538,1409 1538,0 1366,0 Z" id="glyph75"/>&#xa;   <glyph unicode="L" d="M 168,0 L 168,1409 359,1409 359,156 1071,156 1071,0 168,0 Z" id="glyph77"/>&#xa;   <glyph unicode="I" d="M 189,0 L 189,1409 380,1409 380,0 189,0 Z" id="glyph79"/>&#xa;   <glyph unicode="H" d="M 1121,0 L 1121,653 359,653 359,0 168,0 168,1409 359,1409 359,813 1121,813 1121,1409 1312,1409 1312,0 1121,0 Z" id="glyph81"/>&#xa;   <glyph unicode="G" d="M 103,711 C 103,940 164,1117 287,1242 410,1367 582,1430 804,1430 960,1430 1087,1404 1184,1351 1281,1298 1356,1214 1409,1098 L 1227,1044 C 1187,1124 1132,1182 1062,1219 991,1256 904,1274 799,1274 636,1274 512,1225 426,1127 340,1028 297,890 297,711 297,533 343,393 434,290 525,187 652,135 813,135 905,135 991,149 1071,177 1150,205 1215,243 1264,291 L 1264,545 843,545 843,705 1440,705 1440,219 C 1365,143 1274,84 1166,43 1057,1 940,-20 813,-20 666,-20 539,9 432,68 325,127 244,211 188,322 131,432 103,562 103,711 Z" id="glyph83"/>&#xa;   <glyph unicode="F" d="M 359,1253 L 359,729 1145,729 1145,571 359,571 359,0 168,0 168,1409 1169,1409 1169,1253 359,1253 Z" id="glyph85"/>&#xa;   <glyph unicode="E" d="M 168,0 L 168,1409 1237,1409 1237,1253 359,1253 359,801 1177,801 1177,647 359,647 359,156 1278,156 1278,0 168,0 Z" id="glyph87"/>&#xa;   <glyph unicode="D" d="M 1381,719 C 1381,574 1353,447 1296,338 1239,229 1159,145 1055,87 951,29 831,0 695,0 L 168,0 168,1409 634,1409 C 873,1409 1057,1349 1187,1230 1316,1110 1381,940 1381,719 Z M 1189,719 C 1189,894 1141,1027 1046,1119 950,1210 811,1256 630,1256 L 359,1256 359,153 673,153 C 776,153 867,176 946,221 1024,266 1084,332 1126,417 1168,502 1189,603 1189,719 Z" id="glyph89"/>&#xa;   <glyph unicode="C" d="M 792,1274 C 636,1274 515,1224 428,1124 341,1023 298,886 298,711 298,538 343,400 434,295 524,190 646,137 800,137 997,137 1146,235 1245,430 L 1401,352 C 1343,231 1262,138 1157,75 1052,12 930,-20 791,-20 649,-20 526,10 423,69 319,128 240,212 186,322 131,431 104,561 104,711 104,936 165,1112 286,1239 407,1366 575,1430 790,1430 940,1430 1065,1401 1166,1342 1267,1283 1341,1196 1388,1081 L 1207,1021 C 1174,1103 1122,1166 1050,1209 977,1252 891,1274 792,1274 Z" id="glyph91"/>&#xa;   <glyph unicode="B" d="M 1258,397 C 1258,272 1212,174 1121,105 1030,35 903,0 740,0 L 168,0 168,1409 680,1409 C 1011,1409 1176,1295 1176,1067 1176,984 1153,914 1106,857 1059,800 993,762 908,743 1020,730 1106,692 1167,631 1228,569 1258,491 1258,397 Z M 1065,412 C 1065,578 948,661 715,661 L 359,661 359,153 730,153 C 847,153 932,175 985,218 1038,261 1065,326 1065,412 Z M 984,1044 C 984,1120 958,1174 906,1207 854,1240 779,1256 680,1256 L 359,1256 359,810 680,810 C 782,810 858,829 909,868 959,906 984,965 984,1044 Z" id="glyph93"/>&#xa;   <glyph unicode=":" d="M 187,0 L 187,207 382,207 382,0 187,0 Z M 187,875 L 187,1082 382,1082 382,875 187,875 Z" id="glyph95"/>&#xa;   <glyph unicode="8" d="M 1050,393 C 1050,263 1009,162 926,89 843,16 725,-20 570,-20 419,-20 302,16 217,87 132,158 89,260 89,391 89,483 115,560 168,623 221,686 288,724 370,737 L 370,741 C 293,759 233,798 189,858 144,918 122,988 122,1069 122,1176 162,1263 243,1330 323,1397 431,1430 566,1430 705,1430 814,1397 895,1332 975,1267 1015,1178 1015,1067 1015,986 993,916 948,856 903,796 842,758 765,743 L 765,739 C 855,724 925,686 975,625 1025,563 1050,486 1050,393 Z M 863,410 C 863,497 837,563 785,608 733,652 660,674 566,674 475,674 403,650 352,603 301,555 275,489 275,406 275,212 374,115 572,115 670,115 743,139 791,186 839,233 863,307 863,410 Z M 828,1057 C 828,1216 741,1296 566,1296 481,1296 417,1276 373,1236 328,1196 306,1136 306,1057 306,976 329,915 375,873 420,830 485,809 568,809 653,809 717,829 762,868 806,907 828,970 828,1057 Z" id="glyph97"/>&#xa;   <glyph unicode="7" d="M 1036,1263 C 892,1043 790,871 731,746 672,621 627,498 598,377 568,256 553,130 553,0 L 365,0 C 365,180 403,370 480,569 556,768 683,997 862,1256 L 105,1256 105,1409 1036,1409 1036,1263 Z" id="glyph99"/>&#xa;   <glyph unicode="6" d="M 1049,461 C 1049,312 1009,195 928,109 847,23 736,-20 594,-20 435,-20 314,39 230,157 146,275 104,447 104,672 104,916 148,1103 235,1234 322,1365 447,1430 608,1430 821,1430 955,1334 1010,1143 L 838,1112 C 803,1227 725,1284 606,1284 503,1284 424,1236 368,1141 311,1045 283,906 283,725 316,786 362,832 421,864 480,895 548,911 625,911 755,911 858,870 935,789 1011,708 1049,598 1049,461 Z M 866,453 C 866,555 841,634 791,689 741,744 671,772 582,772 498,772 430,748 379,699 327,650 301,582 301,496 301,387 328,298 382,229 435,160 504,125 588,125 675,125 743,154 792,213 841,271 866,351 866,453 Z" id="glyph101"/>&#xa;   <glyph unicode="5" d="M 1053,459 C 1053,310 1009,193 921,108 832,23 710,-20 553,-20 422,-20 316,9 235,66 154,123 103,206 82,315 L 264,336 C 302,197 400,127 557,127 654,127 729,156 784,215 839,273 866,353 866,455 866,544 839,615 784,670 729,725 654,752 561,752 512,752 467,744 425,729 383,714 341,688 299,651 L 123,651 170,1409 971,1409 971,1256 334,1256 307,809 C 385,869 482,899 598,899 737,899 847,858 930,777 1012,696 1053,590 1053,459 Z" id="glyph103"/>&#xa;   <glyph unicode="4" d="M 881,319 L 881,0 711,0 711,319 47,319 47,459 692,1409 881,1409 881,461 1079,461 1079,319 881,319 Z M 711,461 L 711,1206 C 696,1177 683,1153 673,1134 662,1115 653,1100 644,1087 L 321,609 C 302,582 266,532 213,461 L 711,461 Z" id="glyph105"/>&#xa;   <glyph unicode="2" d="M 103,0 L 103,127 C 137,205 179,274 228,334 277,393 328,447 382,496 436,544 490,589 543,630 596,671 643,713 686,754 729,795 763,839 790,884 816,929 829,981 829,1038 829,1115 806,1175 761,1218 716,1261 653,1282 572,1282 495,1282 432,1261 383,1220 333,1178 304,1119 295,1044 L 111,1061 C 124,1174 172,1263 255,1330 337,1397 443,1430 572,1430 714,1430 823,1397 900,1330 976,1263 1014,1167 1014,1044 1014,989 1002,935 977,881 952,827 914,773 865,719 816,665 721,581 582,468 505,405 444,349 399,299 354,248 321,200 301,153 L 1036,153 1036,0 103,0 Z" id="glyph107"/>&#xa;   <glyph unicode="1" d="M 156,0 L 156,153 515,153 515,1237 197,1010 197,1180 530,1409 696,1409 696,153 1039,153 1039,0 156,0 Z" id="glyph109"/>&#xa;   <glyph unicode="0" d="M 1059,705 C 1059,470 1018,290 935,166 852,42 729,-20 567,-20 405,-20 283,42 202,165 121,288 80,468 80,705 80,947 120,1128 199,1249 278,1370 402,1430 573,1430 739,1430 862,1369 941,1247 1020,1125 1059,944 1059,705 Z M 876,705 C 876,908 853,1056 806,1147 759,1238 681,1284 573,1284 462,1284 383,1239 335,1149 286,1059 262,911 262,705 262,505 287,359 336,266 385,173 462,127 569,127 675,127 753,174 802,269 851,364 876,509 876,705 Z" id="glyph111"/>&#xa;   <glyph unicode="/" d="M 0,-20 L 411,1484 569,1484 162,-20 0,-20 Z" id="glyph113"/>&#xa;   <glyph unicode="." d="M 187,0 L 187,219 382,219 382,0 187,0 Z" id="glyph115"/>&#xa;   <glyph unicode="" id="glyph117"/>&#xa;  </font><font id="EmbeddedFont_3" vert-origin-x="512" vert-origin-y="768" vert-adv-y="1024">&#xa;   &#xa;   &#xa;   <glyph unicode="M" d="M 1307,0 L 1307,854 C 1307,873 1307,893 1308,912 1308,931 1311,1014 1317,1161 1270,982 1235,857 1212,786 L 958,0 748,0 494,786 387,1161 C 395,1006 399,904 399,854 L 399,0 137,0 137,1409 532,1409 784,621 854,356 917,582 1176,1409 1569,1409 1569,0 1307,0 Z" id="glyph126"/>&#xa;   <glyph unicode="C" d="M 795,212 C 973,212 1097,301 1166,480 L 1423,383 C 1368,247 1287,146 1180,80 1073,13 944,-20 795,-20 568,-20 393,44 270,173 146,301 84,480 84,711 84,942 144,1120 263,1244 382,1368 555,1430 782,1430 947,1430 1082,1397 1186,1331 1290,1264 1363,1167 1405,1038 L 1145,967 C 1123,1038 1080,1094 1016,1136 951,1177 875,1198 788,1198 655,1198 554,1157 485,1074 416,991 381,870 381,711 381,549 417,425 488,340 559,255 661,212 795,212 Z" id="glyph128"/>&#xa;   <glyph unicode="B" d="M 1386,402 C 1386,274 1338,175 1242,105 1146,35 1013,0 842,0 L 137,0 137,1409 782,1409 C 954,1409 1084,1379 1173,1320 1261,1260 1305,1172 1305,1055 1305,975 1283,908 1239,853 1194,798 1127,760 1036,741 1150,728 1237,692 1297,634 1356,575 1386,498 1386,402 Z M 1090,425 C 1090,557 995,623 806,623 L 432,623 432,219 817,219 C 912,219 981,236 1025,271 1068,305 1090,356 1090,425 Z M 1008,1015 C 1008,1078 988,1123 948,1150 907,1177 847,1190 768,1190 L 432,1190 432,841 770,841 C 853,841 914,856 952,885 989,914 1008,957 1008,1015 Z" id="glyph130"/>&#xa;   <glyph unicode="A" d="M 1133,0 L 1008,360 471,360 346,0 51,0 565,1409 913,1409 1425,0 1133,0 Z M 942,582 L 803,987 739,1192 C 728,1153 718,1119 709,1088 700,1057 642,889 537,582 L 942,582 Z" id="glyph132"/>&#xa;   <glyph unicode="7" d="M 1049,1186 C 986,1086 926,989 870,895 813,801 764,707 722,612 680,517 647,419 623,319 598,218 586,112 586,0 L 293,0 C 293,117 308,231 339,341 370,450 414,562 472,676 530,789 635,957 788,1178 L 88,1178 88,1409 1049,1409 1049,1186 Z" id="glyph134"/>&#xa;   <glyph unicode="2" d="M 71,0 L 71,195 C 108,276 160,354 228,431 295,508 380,588 483,671 582,751 651,817 691,869 730,921 750,972 750,1022 750,1145 688,1206 565,1206 505,1206 459,1190 428,1158 396,1125 375,1077 366,1012 L 83,1028 C 99,1159 148,1258 230,1327 311,1396 422,1430 563,1430 715,1430 832,1395 913,1326 994,1257 1035,1159 1035,1034 1035,968 1022,908 996,855 970,802 937,753 896,708 855,663 810,620 761,581 711,542 663,503 616,466 569,429 527,391 489,353 450,315 422,274 403,231 L 1057,231 1057,0 71,0 Z" id="glyph136"/>&#xa;   <glyph unicode="1" d="M 129,0 L 129,209 478,209 478,1170 140,959 140,1180 493,1409 759,1409 759,209 1082,209 1082,0 129,0 Z" id="glyph138"/>&#xa;   <glyph unicode="0" d="M 1055,705 C 1055,467 1014,287 933,164 851,41 728,-20 565,-20 242,-20 81,222 81,705 81,874 99,1011 134,1118 169,1225 222,1303 293,1354 364,1405 457,1430 573,1430 740,1430 862,1370 939,1249 1016,1128 1055,947 1055,705 Z M 773,705 C 773,835 767,936 754,1008 741,1080 721,1132 693,1163 665,1194 624,1210 571,1210 514,1210 472,1194 443,1163 414,1131 393,1079 381,1008 368,936 362,835 362,705 362,576 369,476 382,404 395,331 415,279 444,248 472,217 513,201 567,201 620,201 662,218 691,251 720,284 741,336 754,409 767,482 773,580 773,705 Z" id="glyph140"/>&#xa;  </font>
</defs>
</svg>
